<svg xmlns="http://www.w3.org/2000/svg" fill="none" viewBox="18.27 16 18.47 19">
<g filter="url(#filter0_d_74_1106)">
<path d="M34.7015 27.022L30.6949 17.8445L29.8213 17.2388L28.7971 16.9127L27.4114 16.54L25.7847 17.2388L24.7002 17.8445L28.7971 27.022H34.7015Z" fill="url(#paint0_linear_74_1106)"/>
</g>
<g filter="url(#filter1_d_74_1106)">
<path d="M20.3229 23.9535L24.3295 33.1525L25.2031 33.7595L26.2273 34.0864L27.613 34.46L29.2397 33.7595L30.3242 33.1525L26.2273 23.9535H20.3229Z" fill="url(#paint1_linear_74_1106)"/>
</g>
<path d="M24.4859 17.9646L18.2659 26.9553L24.4859 27.022L28.9822 17.9646C29.2979 17.038 30.2856 17.5785 30.74 17.9646C28.798 14.4065 25.7614 16.4821 24.4859 17.9646Z" fill="white"/>
<path d="M30.5141 33.0354L36.7341 24.0447L30.5141 23.978L26.0178 33.0354C25.7021 33.962 24.7144 33.4215 24.26 33.0354C26.202 36.5935 29.2386 34.5179 30.5141 33.0354Z" fill="white"/>
<defs>
<filter id="filter0_d_74_1106" x="4.7002" y="0.540039" width="50.0012" height="50.4819" filterUnits="userSpaceOnUse" color-interpolation-filters="sRGB">
<feFlood flood-opacity="0" result="BackgroundImageFix"/>
<feColorMatrix in="SourceAlpha" type="matrix" values="0 0 0 0 0 0 0 0 0 0 0 0 0 0 0 0 0 0 127 0" result="hardAlpha"/>
<feOffset dy="4"/>
<feGaussianBlur stdDeviation="10"/>
<feComposite in2="hardAlpha" operator="out"/>
<feColorMatrix type="matrix" values="0 0 0 0 0 0 0 0 0 0 0 0 0 0 0 0 0 0 0.25 0"/>
<feBlend mode="normal" in2="BackgroundImageFix" result="effect1_dropShadow_74_1106"/>
<feBlend mode="normal" in="SourceGraphic" in2="effect1_dropShadow_74_1106" result="shape"/>
</filter>
<filter id="filter1_d_74_1106" x="0.322998" y="7.95349" width="50.0012" height="50.5065" filterUnits="userSpaceOnUse" color-interpolation-filters="sRGB">
<feFlood flood-opacity="0" result="BackgroundImageFix"/>
<feColorMatrix in="SourceAlpha" type="matrix" values="0 0 0 0 0 0 0 0 0 0 0 0 0 0 0 0 0 0 127 0" result="hardAlpha"/>
<feOffset dy="4"/>
<feGaussianBlur stdDeviation="10"/>
<feComposite in2="hardAlpha" operator="out"/>
<feColorMatrix type="matrix" values="0 0 0 0 0 0 0 0 0 0 0 0 0 0 0 0 0 0 0.25 0"/>
<feBlend mode="normal" in2="BackgroundImageFix" result="effect1_dropShadow_74_1106"/>
<feBlend mode="normal" in="SourceGraphic" in2="effect1_dropShadow_74_1106" result="shape"/>
</filter>
<linearGradient id="paint0_linear_74_1106" x1="33.6653" y1="27.022" x2="28.9137" y2="18.1327" gradientUnits="userSpaceOnUse">
<stop/>
<stop offset="0.494792" stop-color="white"/>
<stop offset="1" stop-color="white"/>
</linearGradient>
<linearGradient id="paint1_linear_74_1106" x1="21.3591" y1="23.9535" x2="26.128" y2="32.8543" gradientUnits="userSpaceOnUse">
<stop stop-color="#0C0C0C"/>
<stop offset="0.494792" stop-color="white"/>
<stop offset="1" stop-color="white"/>
</linearGradient>
</defs>
</svg>