<svg aria-hidden="true" style="position: absolute; width: 0; height: 0; overflow: hidden;" version="1.1" xmlns="http://www.w3.org/2000/svg" xmlns:xlink="http://www.w3.org/1999/xlink">
<defs>
<symbol id="icon-previous_tab-desk" viewBox="0 0 32 32">
<path fill="none" stroke="#fff" style="stroke: var(--color1, #fff)" stroke-linejoin="miter" stroke-linecap="butt" stroke-miterlimit="4" stroke-width="0.7619" d="M6.857 0.381h18.286c3.577 0 6.476 2.9 6.476 6.476v18.286c0 3.577-2.899 6.476-6.476 6.476h-18.286c-3.577 0-6.476-2.899-6.476-6.476v-18.286c0-3.577 2.9-6.476 6.476-6.476z"></path>
<path fill="none" stroke="#fff" style="stroke: var(--color1, #fff)" stroke-linejoin="round" stroke-linecap="round" stroke-miterlimit="4" stroke-width="0.7619" d="M18.286 20.571l-4.571-4.571 4.571-4.571"></path>
</symbol>
<symbol id="icon-next_tab-desk" viewBox="0 0 32 32">
<path fill="none" stroke="#fff" style="stroke: var(--color1, #fff)" stroke-linejoin="miter" stroke-linecap="butt" stroke-miterlimit="4" stroke-width="0.7619" d="M6.857 0.381h18.286c3.577 0 6.476 2.9 6.476 6.476v18.286c0 3.577-2.899 6.476-6.476 6.476h-18.286c-3.577 0-6.476-2.899-6.476-6.476v-18.286c0-3.577 2.9-6.476 6.476-6.476z"></path>
<path fill="none" stroke="#fff" style="stroke: var(--color1, #fff)" stroke-linejoin="round" stroke-linecap="round" stroke-miterlimit="4" stroke-width="0.7619" d="M13.714 20.571l4.571-4.571-4.571-4.571"></path>
</symbol>
<symbol id="icon-logo-header-mobale" viewBox="0 0 32 32">
<path  d="M28.13 18.565l-6.747-15.458-1.474-1.019-1.726-0.549-2.331-0.629-2.743 1.177-1.824 1.019 6.898 15.458h9.943z"></path>
<path  d="M3.913 13.394l6.747 15.495 1.472 1.022 1.723 0.549 2.334 0.631 2.741-1.179 1.826-1.022-6.901-15.495h-9.943z"></path>
<path fill="#fff" style="fill: var(--color1, #fff)" d="M10.926 3.31l-10.48 15.141 10.475 0.114 7.573-15.255c0.533-1.561 2.194-0.651 2.96 0-3.269-5.993-8.384-2.498-10.533 0zM21.074 28.69l10.478-15.141-10.475-0.114-7.573 15.255c-0.533 1.561-2.194 0.651-2.96 0 3.269 5.993 8.384 2.498 10.533 0z"></path>
</symbol>
<symbol id="icon-logo_header-tab-desk" viewBox="0 0 32 32">
<path fill="#000" style="fill: var(--color2, #000)" d="M28.128 18.563l-6.747-15.458-1.472-1.019-1.725-0.549-2.334-0.628-2.739 1.177-1.827 1.019 6.9 15.458h9.944z"></path>
<path fill="#000" style="fill: var(--color2, #000)" d="M3.912 13.396l6.749 15.491 1.47 1.022 1.725 0.551 2.334 0.63 2.74-1.179 1.826-1.024-6.9-15.493h-9.944z"></path>
<path fill="#fff" style="fill: var(--color1, #fff)" d="M10.924 3.309l-10.476 15.141 10.476 0.113 7.572-15.254c0.532-1.561 2.196-0.65 2.961 0-3.271-5.992-8.386-2.498-10.533 0zM21.076 28.691l10.476-15.141-10.476-0.113-7.572 15.254c-0.532 1.561-2.196 0.652-2.961 0 3.271 5.992 8.386 2.498 10.533 0z"></path>
</symbol>
<symbol id="icon-logo_footer-tab-desk" viewBox="0 0 32 32">
<path fill="#000" style="fill: var(--color2, #000)" d="M28.129 18.564l-6.748-15.457-1.472-1.020-1.725-0.549-2.333-0.628-2.74 1.177-1.827 1.020 6.9 15.456h9.944z"></path>
<path fill="#000" style="fill: var(--color2, #000)" d="M3.912 13.395l6.748 15.492 1.471 1.023 1.725 0.55 2.334 0.629 2.739-1.18 1.827-1.023-6.9-15.492h-9.944z"></path>
<path fill="#fff" style="fill: var(--color1, #fff)" d="M10.924 3.309l-10.476 15.142 10.476 0.112 7.572-15.254c0.532-1.56 2.195-0.65 2.961 0-3.27-5.992-8.385-2.497-10.533 0zM21.076 28.691l10.476-15.142-10.476-0.112-7.573 15.254c-0.531 1.56-2.195 0.65-2.96 0 3.27 5.992 8.385 2.497 10.533 0z"></path>
</symbol>
<symbol id="icon-icon_previous-mobale" viewBox="0 0 32 32">
<path fill="none" stroke="#fff" style="stroke: var(--color1, #fff)" stroke-linejoin="miter" stroke-linecap="butt" stroke-miterlimit="4" stroke-width="0.9412" d="M8.471 0.471h15.059c4.418 0 8 3.582 8 8v15.059c0 4.418-3.582 8-8 8h-15.059c-4.418 0-8-3.582-8-8v-15.059c0-4.418 3.582-8 8-8z"></path>
<path fill="none" stroke="#fff" style="stroke: var(--color1, #fff)" stroke-linejoin="round" stroke-linecap="round" stroke-miterlimit="4" stroke-width="0.9412" d="M18.118 20.235l-4.235-4.235 4.235-4.235"></path>
</symbol>
<symbol id="icon-icon_next-mobale" viewBox="0 0 32 32">
<path fill="none" stroke="#fff" style="stroke: var(--color1, #fff)" stroke-linejoin="miter" stroke-linecap="butt" stroke-miterlimit="4" stroke-width="0.9412" d="M8.471 0.471h15.059c4.418 0 8 3.582 8 8v15.059c0 4.418-3.582 8-8 8h-15.059c-4.418 0-8-3.582-8-8v-15.059c0-4.418 3.582-8 8-8z"></path>
<path fill="none" stroke="#fff" style="stroke: var(--color1, #fff)" stroke-linejoin="round" stroke-linecap="round" stroke-miterlimit="4" stroke-width="0.9412" d="M13.882 20.235l4.235-4.235-4.235-4.235"></path>
</symbol>
<symbol id="icon-logo_footer-mobale" viewBox="0 0 32 32">
<path fill="#000" style="fill: var(--color2, #000)" d="M28.129 18.564l-6.747-15.456-1.472-1.021-1.725-0.549-2.334-0.628-2.74 1.177-1.826 1.020 6.9 15.457h9.944z"></path>
<path fill="#000" style="fill: var(--color2, #000)" d="M3.914 13.394l6.748 15.493 1.472 1.022 1.725 0.55 2.334 0.63 2.74-1.18 1.826-1.022-6.9-15.493h-9.944z"></path>
<path fill="#fff" style="fill: var(--color1, #fff)" d="M10.924 3.309l-10.476 15.142 10.476 0.112 7.572-15.254c0.532-1.56 2.195-0.65 2.961 0-3.27-5.992-8.385-2.497-10.534 0zM21.077 28.691l10.475-15.142-10.475-0.112-7.573 15.254c-0.532 1.56-2.195 0.65-2.961 0 3.27 5.992 8.385 2.497 10.534 0z"></path>
</symbol>
<symbol id="icon-icon_youtube-mobale" viewBox="0 0 32 32">
<path fill="#fff" style="fill: var(--color1, #fff)" opacity="0.8" d="M20.944 10c-0.816-0.048-2.496-0.096-5.040-0.096h-0.336c-2.448 0-4.080 0.048-4.896 0.144-1.104 0.096-1.872 0.384-2.304 0.768-0.384 0.336-0.672 0.96-0.768 1.776-0.048 0.528-0.096 1.632-0.096 3.312v0.24c0 1.584 0.048 2.688 0.144 3.216 0.144 0.768 0.384 1.344 0.864 1.68 0.48 0.384 1.296 0.624 2.448 0.72 0.816 0.048 2.496 0.096 5.040 0.096h0.336c2.448 0 4.080-0.048 4.896-0.144 1.104-0.096 1.872-0.384 2.304-0.768 0.384-0.336 0.672-0.96 0.768-1.776 0.048-0.528 0.096-1.632 0.096-3.312v-0.24c0-1.584-0.048-2.688-0.144-3.216-0.144-0.768-0.384-1.344-0.864-1.68-0.48-0.384-1.296-0.624-2.448-0.72zM19.072 15.904l-5.28 3.168v-6.336l5.28 3.168z"></path>
<path fill="none" stroke="#fff" style="stroke: var(--color1, #fff)" stroke-linejoin="miter" stroke-linecap="butt" stroke-miterlimit="4" stroke-width="0.8" d="M8 0.4h16c4.197 0 7.6 3.403 7.6 7.6v16c0 4.197-3.403 7.6-7.6 7.6h-16c-4.197 0-7.6-3.403-7.6-7.6v-16c0-4.197 3.403-7.6 7.6-7.6z"></path>
</symbol>
<symbol id="icon-icon_insta-mobale" viewBox="0 0 32 32">
<path fill="#fff" style="fill: var(--color1, #fff)" opacity="0.8" d="M23.63 12.854c-0.009-0.68-0.14-1.328-0.37-1.925l0.013 0.038c-0.409-1.033-1.212-1.835-2.219-2.233l-0.027-0.009c-0.552-0.213-1.191-0.343-1.858-0.357l-0.006-0c-0.821-0.036-1.082-0.046-3.164-0.046s-2.35 0-3.165 0.046c-0.673 0.014-1.312 0.144-1.903 0.371l0.039-0.013c-1.034 0.407-1.837 1.209-2.236 2.216l-0.009 0.027c-0.214 0.551-0.344 1.189-0.357 1.855l-0 0.005c-0.037 0.82-0.048 1.080-0.048 3.159s0 2.345 0.048 3.159c0.013 0.672 0.143 1.311 0.37 1.901l-0.013-0.038c0.409 1.033 1.213 1.834 2.221 2.232l0.027 0.009c0.55 0.222 1.188 0.361 1.855 0.384l0.009 0c0.821 0.036 1.081 0.047 3.164 0.047s2.35 0 3.165-0.048c0.673-0.014 1.312-0.143 1.903-0.37l-0.039 0.013c1.033-0.408 1.836-1.209 2.236-2.215l0.009-0.027c0.214-0.552 0.344-1.19 0.358-1.857l0-0.006c0.037-0.819 0.048-1.079 0.048-3.16-0.002-2.078-0.002-2.342-0.050-3.158zM15.994 19.918c-0.001 0-0.003 0-0.004 0-2.174 0-3.937-1.762-3.939-3.936v-0c0.001-2.175 1.764-3.937 3.939-3.937 0.002 0 0.003 0 0.005 0h-0c0.001 0 0.002 0 0.002 0 2.175 0 3.938 1.762 3.94 3.936v0c-0.002 2.175-1.765 3.937-3.94 3.937-0.001 0-0.002 0-0.003 0h0zM20.094 12.818c-0.507 0-0.918-0.411-0.918-0.918s0.411-0.918 0.918-0.918v0c0.507 0 0.918 0.411 0.918 0.918s-0.411 0.918-0.918 0.918v0z"></path>
<path fill="#fff" style="fill: var(--color1, #fff)" opacity="0.8" d="M15.995 18.386c1.327 0 2.402-1.076 2.402-2.402s-1.076-2.402-2.402-2.402v0c-1.327 0-2.402 1.076-2.402 2.402s1.076 2.402 2.402 2.402v0z"></path>
<path fill="none" stroke="#fff" style="stroke: var(--color1, #fff)" stroke-linejoin="miter" stroke-linecap="butt" stroke-miterlimit="4" stroke-width="0.8" d="M8 0.4h16c4.197 0 7.6 3.403 7.6 7.6v16c0 4.197-3.403 7.6-7.6 7.6h-16c-4.197 0-7.6-3.403-7.6-7.6v-16c0-4.197 3.403-7.6 7.6-7.6z"></path>
</symbol>
<symbol id="icon-icon_facebook-mobale" viewBox="0 0 32 32">
<path fill="#fff" style="fill: var(--color1, #fff)" opacity="0.8" d="M18.112 9.184h0.576v2.16h-0.72c-0.288 0-0.576 0-0.72 0.144s-0.144 0.288-0.144 0.624v0.768h1.584v1.824h-1.584v7.92h-2.448v-7.968h-1.296v-1.824h1.296v-0.624c0-1.056 0.144-1.824 0.432-2.16 0.432-0.624 1.296-0.912 2.592-0.912 0.144 0.048 0.288 0.048 0.432 0.048z"></path>
<path fill="none" stroke="#fff" style="stroke: var(--color1, #fff)" stroke-linejoin="miter" stroke-linecap="butt" stroke-miterlimit="4" stroke-width="0.8" d="M8 0.4h16c4.197 0 7.6 3.403 7.6 7.6v16c0 4.197-3.403 7.6-7.6 7.6h-16c-4.197 0-7.6-3.403-7.6-7.6v-16c0-4.197 3.403-7.6 7.6-7.6z"></path>
</symbol>
<symbol id="icon-youtube_tab-desk" viewBox="0 0 31 32">
<path fill="#fff" style="fill: var(--color1, #fff)" opacity="0.8" d="M20.772 9.646c-0.846-0.050-2.588-0.1-5.227-0.1h-0.348c-2.539 0-4.231 0.050-5.077 0.149-1.145 0.1-1.941 0.398-2.389 0.796-0.398 0.348-0.697 0.996-0.796 1.842-0.050 0.548-0.1 1.692-0.1 3.435v0.249c0 1.643 0.050 2.788 0.149 3.335 0.149 0.796 0.398 1.394 0.896 1.742 0.498 0.398 1.344 0.647 2.539 0.747 0.846 0.050 2.588 0.1 5.227 0.1h0.348c2.539 0 4.231-0.050 5.077-0.149 1.145-0.1 1.941-0.398 2.389-0.796 0.398-0.348 0.697-0.996 0.796-1.842 0.050-0.548 0.1-1.692 0.1-3.435v-0.249c0-1.643-0.050-2.788-0.149-3.335-0.149-0.796-0.398-1.394-0.896-1.742-0.498-0.398-1.344-0.647-2.539-0.747zM18.83 15.768l-5.476 3.285v-6.571l5.476 3.285z"></path>
<path fill="none" stroke-linejoin="miter" stroke-linecap="butt" stroke-miterlimit="4" stroke-width="0.7111" d="M7.111 0.579h17.067c3.731 0 6.756 3.025 6.756 6.756v17.067c0 3.731-3.025 6.756-6.756 6.756h-17.067c-3.731 0-6.756-3.025-6.756-6.756v-17.067c0-3.731 3.025-6.756 6.756-6.756z"></path>
</symbol>
<symbol id="icon-insta_tab-desk" viewBox="0 0 31 32">
<path fill="#fff" style="fill: var(--color1, #fff)" opacity="0.8" d="M23.558 12.604c-0.010-0.706-0.145-1.377-0.384-1.996l0.013 0.039c-0.424-1.071-1.257-1.903-2.302-2.316l-0.028-0.010c-0.573-0.221-1.235-0.355-1.927-0.37l-0.006-0c-0.851-0.038-1.121-0.050-3.28-0.050s-2.437 0-3.282 0.050c-0.661 0.013-1.314 0.138-1.933 0.37-1.072 0.422-1.905 1.254-2.319 2.298l-0.010 0.028c-0.222 0.572-0.357 1.233-0.37 1.924l-0 0.006c-0.038 0.851-0.050 1.119-0.050 3.276s0 2.432 0.050 3.276c0.014 0.697 0.148 1.359 0.383 1.971l-0.013-0.040c0.425 1.071 1.258 1.902 2.303 2.314l0.028 0.010c0.571 0.23 1.232 0.374 1.923 0.398l0.010 0c0.852 0.038 1.121 0.049 3.282 0.049s2.437 0 3.282-0.050c0.698-0.014 1.361-0.148 1.974-0.383l-0.040 0.013c1.072-0.423 1.904-1.255 2.319-2.298l0.010-0.028c0.233-0.619 0.358-1.27 0.37-1.931 0.038-0.849 0.050-1.119 0.050-3.276-0.001-2.156-0.001-2.43-0.051-3.275zM15.637 19.932c-0.001 0-0.003 0-0.004 0-2.255 0-4.083-1.828-4.085-4.082v-0c0.002-2.255 1.83-4.082 4.085-4.082 0.001 0 0.002 0 0.004 0h-0c2.258 0 4.089 1.828 4.089 4.082-0.002 2.255-1.83 4.083-4.086 4.083-0.001 0-0.002 0-0.003 0h0zM19.89 12.568c-0.526 0-0.952-0.426-0.952-0.952s0.426-0.952 0.952-0.952v0c0.008-0 0.017-0 0.026-0 0.526 0 0.952 0.426 0.952 0.952s-0.426 0.952-0.952 0.952c-0.009 0-0.018-0-0.027-0l0.001 0z"></path>
<path fill="#fff" style="fill: var(--color1, #fff)" opacity="0.8" d="M15.639 18.342c1.376 0 2.491-1.115 2.491-2.491s-1.115-2.491-2.491-2.491v0c-1.376 0-2.491 1.115-2.491 2.491s1.115 2.491 2.491 2.491v0z"></path>
<path fill="none" stroke-linejoin="miter" stroke-linecap="butt" stroke-miterlimit="4" stroke-width="0.7111" d="M7.111 0.579h17.067c3.731 0 6.756 3.025 6.756 6.756v17.067c0 3.731-3.025 6.756-6.756 6.756h-17.067c-3.731 0-6.756-3.025-6.756-6.756v-17.067c0-3.731 3.025-6.756 6.756-6.756z"></path>
</symbol>
<symbol id="icon-facebook_tab-deck" viewBox="0 0 31 32">
<path fill="#fff" style="fill: var(--color1, #fff)" opacity="0.8" d="M17.835 8.799h0.597v2.24h-0.747c-0.299 0-0.597 0-0.747 0.149s-0.149 0.299-0.149 0.647v0.796h1.643v1.892h-1.643v8.213h-2.539v-8.263h-1.344v-1.892h1.344v-0.647c0-1.095 0.149-1.892 0.448-2.24 0.448-0.647 1.344-0.946 2.688-0.946 0.149 0.050 0.299 0.050 0.448 0.050z"></path>
<path fill="none" stroke-linejoin="miter" stroke-linecap="butt" stroke-miterlimit="4" stroke-width="0.7111" d="M7.111 0.579h17.067c3.731 0 6.756 3.025 6.756 6.756v17.067c0 3.731-3.025 6.756-6.756 6.756h-17.067c-3.731 0-6.756-3.025-6.756-6.756v-17.067c0-3.731 3.025-6.756 6.756-6.756z"></path>
</symbol>
<symbol id="icon-icon_menu-burger" viewBox="0 0 32 32">
<path fill="#fff" style="fill: var(--color1, #fff)" d="M2.667 7.993c0-0.733 0.595-1.327 1.327-1.327h10.68c0.733 0 1.327 0.594 1.327 1.327s-0.594 1.327-1.327 1.327h-10.68c-0.733 0-1.327-0.594-1.327-1.327v0zM2.667 16c0-0.733 0.595-1.327 1.327-1.327h24.013c0.733 0 1.327 0.594 1.327 1.327s-0.594 1.327-1.327 1.327h-24.013c-0.733 0-1.327-0.594-1.327-1.327v0zM3.993 22.68c-0.733 0-1.327 0.594-1.327 1.327s0.594 1.327 1.327 1.327h16.013c0.733 0 1.327-0.594 1.327-1.327s-0.594-1.327-1.327-1.327h-16.013z"></path>
</symbol>
<symbol id="icon-icon_heart" viewBox="0 0 32 32">
<path fill="none" stroke="##000" style="stroke: var(--color1, ##000)" stroke-linejoin="round" stroke-linecap="round" stroke-miterlimit="4" stroke-width="2.6667" d="M27.787 6.147c-1.327-1.328-3.161-2.149-5.187-2.149s-3.859 0.821-5.187 2.149l-1.413 1.413-1.413-1.413c-1.327-1.327-3.161-2.148-5.187-2.148-4.051 0-7.335 3.284-7.335 7.335 0 2.026 0.821 3.859 2.148 5.187l11.787 11.787 11.787-11.787c1.328-1.327 2.149-3.161 2.149-5.187s-0.821-3.859-2.149-5.187l-0-0z"></path>
</symbol>
<symbol id="icon-icon_close-mobale-menu" viewBox="0 0 32 32">
<path fill="none" stroke="#000" style="stroke: var(--color1, #000)" stroke-linejoin="round" stroke-linecap="round" stroke-miterlimit="4" stroke-width="1.7333" d="M24 8l-16 16M8 8l16 16"></path>
</symbol>
<symbol id="icon-close_modal-tab-desk" viewBox="0 0 32 32">
<path fill="none" stroke="#000" style="stroke: var(--color1, #000)" stroke-linejoin="round" stroke-linecap="round" stroke-miterlimit="4" stroke-width="1.7333" d="M24 8l-16 16M8 8l16 16"></path>
</symbol>
<symbol id="icon-chevron-prev" viewBox="0 0 18 18">
<path d="M11.25 13.5L6.75 9L11.25 4.5" stroke="white" stroke-linecap="round" stroke-linejoin="round"/>
</symbol>
<symbol id="icon-chevron-next" viewBox="0 0 18 18">
<path d="M6.75 13.5L11.25 9L6.75 4.5" stroke="white" stroke-linecap="round" stroke-linejoin="round"/>
</symbol>
<symbol id="icon-numbers-line" viewBox="0 0 32 2">
<path d="M0 1H32" stroke="white"/>
</symbol>
<symbol id="icon-logo-18" viewBox="0 0 32 32">
<path fill="#fff" style="fill: var(--color1, #fff)" d="M28.129 18.564l-6.748-15.457-1.471-1.020-1.725-0.549-2.334-0.628-2.74 1.177-1.826 1.020 6.9 15.457h9.944z"></path>
<path fill="#fff" style="fill: var(--color1, #fff)" d="M3.913 13.395l6.748 15.493 1.471 1.022 1.725 0.551 2.334 0.629 2.74-1.18 1.826-1.022-6.9-15.493h-9.944z"></path>
<path fill="#fff" style="fill: var(--color1, #fff)" d="M10.924 3.309l-10.476 15.142 10.476 0.112 7.573-15.255c0.532-1.561 2.195-0.65 2.961 0-3.271-5.993-8.385-2.497-10.533 0z"></path>
<path fill="#fff" style="fill: var(--color1, #fff)" d="M21.076 28.691l10.476-15.142-10.476-0.112-7.573 15.255c-0.532 1.561-2.195 0.65-2.961 0 3.271 5.993 8.385 2.497 10.533 0z"></path>
</symbol>
</defs>
</svg>